<svg width="140" height="30" viewBox="0 0 140 30" fill="none" xmlns="http://www.w3.org/2000/svg">
<path d="M17.892 24.212H7.884L6.228 29H0.936L9.972 3.836H15.84L24.876 29H19.548L17.892 24.212ZM16.524 20.18L12.888 9.668L9.252 20.18H16.524ZM33.2935 12.152C33.9415 11.096 34.7815 10.268 35.8135 9.668C36.8695 9.068 38.0695 8.768 39.4135 8.768V14.06H38.0815C36.4975 14.06 35.2975 14.432 34.4815 15.176C33.6895 15.92 33.2935 17.216 33.2935 19.064V29H28.2535V9.056H33.2935V12.152ZM41.5122 18.956C41.5122 16.94 41.9082 15.152 42.7002 13.592C43.5162 12.032 44.6082 10.832 45.9762 9.992C47.3682 9.152 48.9162 8.732 50.6202 8.732C52.1082 8.732 53.4042 9.032 54.5082 9.632C55.6362 10.232 56.5362 10.988 57.2082 11.9V9.056H62.2842V29H57.2082V26.084C56.5602 27.02 55.6602 27.8 54.5082 28.424C53.3802 29.024 52.0722 29.324 50.5842 29.324C48.9042 29.324 47.3682 28.892 45.9762 28.028C44.6082 27.164 43.5162 25.952 42.7002 24.392C41.9082 22.808 41.5122 20.996 41.5122 18.956ZM57.2082 19.028C57.2082 17.804 56.9682 16.76 56.4882 15.896C56.0082 15.008 55.3602 14.336 54.5442 13.88C53.7282 13.4 52.8522 13.16 51.9162 13.16C50.9802 13.16 50.1162 13.388 49.3242 13.844C48.5322 14.3 47.8842 14.972 47.3802 15.86C46.9002 16.724 46.6602 17.756 46.6602 18.956C46.6602 20.156 46.9002 21.212 47.3802 22.124C47.8842 23.012 48.5322 23.696 49.3242 24.176C50.1402 24.656 51.0042 24.896 51.9162 24.896C52.8522 24.896 53.7282 24.668 54.5442 24.212C55.3602 23.732 56.0082 23.06 56.4882 22.196C56.9682 21.308 57.2082 20.252 57.2082 19.028ZM81.4627 16.112C82.8787 16.376 84.0427 17.084 84.9547 18.236C85.8667 19.388 86.3227 20.708 86.3227 22.196C86.3227 23.54 85.9867 24.728 85.3147 25.76C84.6667 26.768 83.7187 27.56 82.4707 28.136C81.2227 28.712 79.7467 29 78.0427 29H67.2067V3.872H77.5747C79.2787 3.872 80.7427 4.148 81.9667 4.7C83.2147 5.252 84.1507 6.02 84.7747 7.004C85.4227 7.988 85.7467 9.104 85.7467 10.352C85.7467 11.816 85.3507 13.04 84.5587 14.024C83.7907 15.008 82.7587 15.704 81.4627 16.112ZM72.2467 14.24H76.8547C78.0547 14.24 78.9787 13.976 79.6267 13.448C80.2747 12.896 80.5987 12.116 80.5987 11.108C80.5987 10.1 80.2747 9.32 79.6267 8.768C78.9787 8.216 78.0547 7.94 76.8547 7.94H72.2467V14.24ZM77.3227 24.896C78.5467 24.896 79.4947 24.608 80.1667 24.032C80.8627 23.456 81.2107 22.64 81.2107 21.584C81.2107 20.504 80.8507 19.664 80.1307 19.064C79.4107 18.44 78.4387 18.128 77.2147 18.128H72.2467V24.896H77.3227ZM92.8955 6.68C92.0075 6.68 91.2635 6.404 90.6635 5.852C90.0875 5.276 89.7995 4.568 89.7995 3.728C89.7995 2.888 90.0875 2.192 90.6635 1.64C91.2635 1.064 92.0075 0.775999 92.8955 0.775999C93.7835 0.775999 94.5155 1.064 95.0915 1.64C95.6915 2.192 95.9915 2.888 95.9915 3.728C95.9915 4.568 95.6915 5.276 95.0915 5.852C94.5155 6.404 93.7835 6.68 92.8955 6.68ZM95.3795 9.056V29H90.3395V9.056H95.3795ZM112.167 29L105.399 20.504V29H100.359V2.36H105.399V17.516L112.095 9.056H118.647L109.863 19.064L118.719 29H112.167ZM139.922 18.596C139.922 19.316 139.874 19.964 139.778 20.54H125.198C125.318 21.98 125.822 23.108 126.71 23.924C127.598 24.74 128.69 25.148 129.986 25.148C131.858 25.148 133.19 24.344 133.982 22.736H139.418C138.842 24.656 137.738 26.24 136.106 27.488C134.474 28.712 132.47 29.324 130.094 29.324C128.174 29.324 126.446 28.904 124.91 28.064C123.398 27.2 122.21 25.988 121.346 24.428C120.506 22.868 120.086 21.068 120.086 19.028C120.086 16.964 120.506 15.152 121.346 13.592C122.186 12.032 123.362 10.832 124.874 9.992C126.386 9.152 128.126 8.732 130.094 8.732C131.99 8.732 133.682 9.14 135.17 9.956C136.682 10.772 137.846 11.936 138.662 13.448C139.502 14.936 139.922 16.652 139.922 18.596ZM134.702 17.156C134.678 15.86 134.21 14.828 133.298 14.06C132.386 13.268 131.27 12.872 129.95 12.872C128.702 12.872 127.646 13.256 126.782 14.024C125.942 14.768 125.426 15.812 125.234 17.156H134.702Z" fill="white"/>
</svg>
